# Blender 3.4.1
# www.blender.org
mtllib betterboard.mtl
o Cube
v 3.155050 0.647298 -3.155050
v 2.778774 -0.647299 -2.778774
v 3.155050 0.647298 3.155050
v 2.778774 -0.647299 2.778774
v -3.155050 0.647298 -3.155050
v -2.778774 -0.647299 -2.778774
v -3.155050 0.647298 3.155050
v -2.778774 -0.647299 2.778774
vn -0.0000 1.0000 -0.0000
vn -0.0000 -0.2791 0.9603
vn -0.9603 -0.2791 -0.0000
vn -0.0000 -1.0000 -0.0000
vn 0.9603 -0.2791 -0.0000
vn -0.0000 -0.2791 -0.9603
vt 0.625000 0.500000
vt 0.558802 0.500000
vt 0.625000 0.750000
vt 0.558802 0.750000
vt 0.875000 0.500000
vt 0.625000 0.250000
vt 0.049689 0.424689
vt 0.558802 0.250000
vt 0.875000 0.750000
vt 0.625000 1.000000
vt 0.625000 0.000000
vt 0.558802 1.000000
vt 0.558802 0.000000
vt 0.049689 0.825311
s 0
usemtl Material
f 1/1/1 5/5/1 7/9/1 3/3/1
f 4/4/2 3/3/2 7/10/2 8/12/2
f 8/13/3 7/11/3 5/6/3 6/8/3
f 6/7/4 2/2/4 4/4/4 8/14/4
f 2/2/5 1/1/5 3/3/5 4/4/5
f 6/8/6 5/6/6 1/1/6 2/2/6
